<?xml version="1.0" encoding="utf-8"?>
<!-- Generator: Adobe Illustrator 17.0.0, SVG Export Plug-In . SVG Version: 6.00 Build 0)  -->
<!DOCTYPE svg PUBLIC "-//W3C//DTD SVG 1.1//EN" "http://www.w3.org/Graphics/SVG/1.1/DTD/svg11.dtd">
<svg version="1.1" id="图层_1" xmlns="http://www.w3.org/2000/svg" xmlns:xlink="http://www.w3.org/1999/xlink" x="0px" y="0px"
	 width="80px" height="80px" viewBox="0 0 80 80" enable-background="new 0 0 80 80" xml:space="preserve">
<g>
	<path fill="#FFFFFF" d="M40,4c19.85,0,36,16.15,36,36S59.85,76,40,76S4,59.85,4,40S20.15,4,40,4 M40,0C17.909,0,0,17.909,0,40
		c0,22.091,17.909,40,40,40c22.092,0,40-17.909,40-40C80,17.909,62.092,0,40,0L40,0z"/>
	<path fill="#FFFFFF" d="M33.854,24.879L48.975,40L33.854,55.121l-2.828-2.828L43.318,40L31.025,27.708L33.854,24.879z"/>
</g>
</svg>
