<?xml version="1.0" encoding="UTF-8"?>
<!-- Generator: Adobe Illustrator 17.0.0, SVG Export Plug-In . SVG Version: 6.00 Build 0)  -->
<!DOCTYPE svg PUBLIC "-//W3C//DTD SVG 1.1//EN" "http://www.w3.org/Graphics/SVG/1.1/DTD/svg11.dtd">
<svg version="1.1" id="图层_1" xmlns="http://www.w3.org/2000/svg" xmlns:xlink="http://www.w3.org/1999/xlink" x="0px" y="0px" width="128px" height="128px" viewBox="0 0 128 128" enable-background="new 0 0 128 128" xml:space="preserve">
<g>
	<path fill="#A4A7A5" d="M121.311,48.643C114.372,22.742,90.819,4.652,64.036,4.652c-5.172,0-10.351,0.685-15.393,2.036   C17.042,15.155-1.779,47.754,6.689,79.356c6.94,25.902,30.493,43.991,57.276,43.991c5.171,0,10.35-0.685,15.391-2.036   C110.958,112.844,129.779,80.244,121.311,48.643z M64.036,8.146c17.27,0,33.11,7.995,43.474,20.869l-5.636,21.147L60.287,8.275   C61.536,8.191,62.786,8.146,64.036,8.146z M100.833,54.072l-9.84,36.922l-36.873,9.88L27.126,73.88l9.88-36.874l37.032-9.922   L100.833,54.072z M49.547,10.063c2.079-0.557,4.183-0.986,6.3-1.301l15.354,15.465L13.818,39.602   C20.66,25.552,33.302,14.416,49.547,10.063z M10.063,78.452c-3.2-11.943-2.251-24.034,1.947-34.749l21.098-5.653L17.768,95.306   C14.344,90.256,11.708,84.588,10.063,78.452z M63.965,119.854c-17.307,0-33.18-8.028-43.543-20.951l5.66-21.125l41.923,41.923   C66.659,119.799,65.312,119.854,63.965,119.854z M78.452,117.937c-1.985,0.532-3.992,0.947-6.011,1.258l-15.469-15.469   l57.21-15.329C107.339,102.448,94.697,113.584,78.452,117.937z M115.989,84.296L94.887,89.95l15.283-57.345   c3.454,5.072,6.113,10.77,7.767,16.942C121.137,61.49,120.187,73.582,115.989,84.296z"/>
</g>
</svg>