<?xml version="1.0" encoding="UTF-8"?>
<!-- Generator: Adobe Illustrator 17.0.0, SVG Export Plug-In . SVG Version: 6.00 Build 0)  -->
<!DOCTYPE svg PUBLIC "-//W3C//DTD SVG 1.1//EN" "http://www.w3.org/Graphics/SVG/1.1/DTD/svg11.dtd">
<svg version="1.1" id="图层_1" xmlns="http://www.w3.org/2000/svg" xmlns:xlink="http://www.w3.org/1999/xlink" x="0px" y="0px" width="128px" height="128px" viewBox="0 0 128 128" enable-background="new 0 0 128 128" xml:space="preserve">
<g>
	<path fill="#A4A7A5" d="M64,32.001c-17.673,0-32,14.328-32,32.001c0,17.672,14.326,31.999,32,31.999c17.673,0,32-14.328,32-31.999   C96,46.328,81.673,32.001,64,32.001z M64,92.507c-15.718,0-28.506-12.787-28.506-28.505c0-15.719,12.788-28.507,28.506-28.507   c15.718,0,28.506,12.788,28.506,28.507C92.506,79.72,79.718,92.507,64,92.507z"/>
	<polygon fill="#A4A7A5" points="88.459,4.652 88.459,8.146 119.854,8.146 119.854,39.542 123.348,39.542 123.348,4.652  "/>
	<polygon fill="#A4A7A5" points="8.146,8.146 39.541,8.146 39.541,4.652 4.652,4.652 4.652,39.542 8.146,39.542  "/>
	<polygon fill="#A4A7A5" points="119.854,119.854 88.459,119.854 88.459,123.348 123.348,123.348 123.348,88.458 119.854,88.458     "/>
	<polygon fill="#A4A7A5" points="8.146,88.458 4.652,88.458 4.652,123.348 39.541,123.348 39.541,119.854 8.146,119.854  "/>
</g>
</svg>